<?xml version="1.0" encoding="UTF-8" standalone="no"?>
<!-- Created with Inkscape (http://www.inkscape.org/) -->

<svg
   xmlns:dc="http://purl.org/dc/elements/1.1/"
   xmlns:cc="http://creativecommons.org/ns#"
   xmlns:rdf="http://www.w3.org/1999/02/22-rdf-syntax-ns#"
   xmlns:svg="http://www.w3.org/2000/svg"
   xmlns="http://www.w3.org/2000/svg"
   xmlns:sodipodi="http://sodipodi.sourceforge.net/DTD/sodipodi-0.dtd"
   xmlns:inkscape="http://www.inkscape.org/namespaces/inkscape"
   width="915.19818"
   height="436.38589"
   id="svg2"
   version="1.1"
   inkscape:version="0.48.2 r9819"
   sodipodi:docname="rupees.svg">
  <defs
     id="defs4" />
  <sodipodi:namedview
     id="base"
     pagecolor="#ffffff"
     bordercolor="#666666"
     borderopacity="1.0"
     inkscape:pageopacity="0.0"
     inkscape:pageshadow="2"
     inkscape:zoom="1.4"
     inkscape:cx="436.57891"
     inkscape:cy="219.98028"
     inkscape:document-units="px"
     inkscape:current-layer="layer2"
     showgrid="false"
     showguides="true"
     inkscape:guide-bbox="true"
     inkscape:window-width="1600"
     inkscape:window-height="838"
     inkscape:window-x="-8"
     inkscape:window-y="-8"
     inkscape:window-maximized="1"
     fit-margin-top="0"
     fit-margin-left="0"
     fit-margin-right="0"
     fit-margin-bottom="0" />
  <metadata
     id="metadata7">
    <rdf:RDF>
      <cc:Work
         rdf:about="">
        <dc:format>image/svg+xml</dc:format>
        <dc:type
           rdf:resource="http://purl.org/dc/dcmitype/StillImage" />
        <dc:title />
      </cc:Work>
    </rdf:RDF>
  </metadata>
  <g
     inkscape:groupmode="layer"
     id="layer2"
     inkscape:label="Layer"
     transform="translate(22.223366,-232.11823)">
    <rect
       style="fill:#000000;stroke:none"
       id="rect7227"
       width="915.19818"
       height="436.38589"
       x="-22.223366"
       y="232.11823"
       ry="4.1785712"
       inkscape:export-xdpi="140"
       inkscape:export-ydpi="140" />
    <path
       style="fill:#fc5812;fill-opacity:1;stroke:none"
       d="m 205.2729,500.94717 -17.5514,-14.40665 0.01,-38.9413 0.01,-38.9413 17.4816,-14.33543 c 9.6148,-7.88448 17.7672,-14.36208 18.1164,-14.39467 0.3492,-0.0326 8.3897,6.29496 17.8679,14.06122 l 17.2329,14.12046 -0.1293,39.12744 -0.1293,39.12744 -15.9099,13.08805 c -8.7505,7.19843 -16.7054,13.72105 -17.6777,14.49472 l -1.7678,1.40667 -17.5514,-14.40665 0,0 z"
       id="path4035-3-5-0"
       inkscape:connector-curvature="0" />
    <path
       style="fill:#fa7d32;fill-opacity:1;stroke:none"
       d="m 241.3916,392.0877 -17.2931,-14.23944 -0.01,-23.65475 -0.01,-23.65476 2.0114,1.59306 c 1.1062,0.87618 15.5956,12.1569 32.1986,25.06827 16.6029,12.91137 30.2535,23.66303 30.3345,23.89259 0.1219,0.34533 -29.3892,25.35403 -29.8117,25.26344 -0.074,-0.0159 -7.917,-6.43672 -17.4283,-14.26841 l 0,0 z"
       id="path4037-1-0-0"
       inkscape:connector-curvature="0" />
    <path
       style="fill:#da4403;fill-opacity:1;stroke:none"
       d="m 274.4684,498.71047 -14.521,-12.10372 0,-39.48551 0,-39.48551 14.7735,-12.30316 14.7735,-12.30317 0.1179,39.33076 c 0.065,21.63192 -0.049,50.3835 -0.2525,63.8924 l -0.3705,24.56163 -14.5209,-12.10372 z"
       id="path4039-23-9-8"
       inkscape:connector-curvature="0" />
    <path
       style="fill:#da4403;fill-opacity:1;stroke:none"
       d="m 189.949,541.35946 -31.8653,-28.62155 14.6412,-12.20011 14.6412,-12.2001 17.3396,14.20327 17.3397,14.20327 0.011,26.64277 c 0.01,14.65353 -0.046,26.63181 -0.1156,26.6184 -0.069,-0.0134 -14.4656,-12.90409 -31.9915,-28.64595 l 0,0 z"
       id="path4041-3-0-8"
       inkscape:connector-curvature="0" />
    <path
       style="fill:#fa7d32;fill-opacity:1;stroke:none"
       d="m 156.7427,463.63053 c -0.1848,-26.29889 -0.3359,-55.16861 -0.3359,-64.15492 l 0,-16.33876 14.8998,12.42733 14.8997,12.42732 0,39.5909 0,39.5909 -13.7633,11.45433 c -7.5699,6.29988 -14.1236,11.76139 -14.5639,12.1367 -0.7295,0.62182 -0.8304,-3.56047 -1.1364,-47.1338 l 0,0 z"
       id="path4043-4-0-0"
       inkscape:connector-curvature="0" />
    <path
       style="fill:#fc5812;fill-opacity:1;stroke:none"
       d="m 224.2088,542.94124 0.1308,-26.66442 17.0865,-14.03469 c 9.3975,-7.71909 17.2739,-14.0347 17.503,-14.0347 0.2872,0 26.1587,21.24676 29.173,23.95805 0.1191,0.10712 -58.8744,53.13206 -62.3154,56.01074 l -1.7086,1.42943 0.1307,-26.66441 0,0 z"
       id="path4045-1-6-5"
       inkscape:connector-curvature="0" />
    <path
       style="fill:none;stroke:#fa7d32;stroke-width:2.52538133;stroke-miterlimit:4;stroke-dasharray:none"
       d="m 189.3327,543.19323 -33.3301,-29.89034 -0.3127,-19.22996 c -0.172,-10.57649 -0.3686,-40.36742 -0.4369,-66.20207 l -0.1243,-46.97209 34.1699,-26.61618 34.1699,-26.61618 33.821,26.3083 33.821,26.30829 -0.071,42.98683 c -0.039,23.64276 -0.2097,53.45589 -0.3788,66.25142 l -0.3075,23.26458 -33.4841,30.02097 c -18.4163,16.51152 -33.6465,30.07851 -33.845,30.14886 -0.1985,0.0703 -15.3595,-13.32274 -33.691,-29.76243 l 0,0 z m 33.0874,0.16314 0,-26.69345 -17.1931,-14.09146 c -9.4563,-7.75029 -17.3996,-14.16334 -17.652,-14.25122 -0.3676,-0.12806 -25.4612,20.3571 -28.9535,23.63623 -0.8757,0.82227 -0.6178,1.12871 5.7854,6.87483 44.1119,39.58528 57.1867,51.21853 57.5654,51.21853 0.2547,0 0.4478,-11.50853 0.4478,-26.69346 z m 33.847,-2.17896 c 17.3582,-15.60203 31.5604,-28.64477 31.5604,-28.98385 0,-0.90705 -27.8342,-23.96608 -28.929,-23.96608 -0.4981,0 -14.1976,10.89549 -28.5477,22.70453 l -6.4155,5.27941 0,26.66667 c 0,14.66666 0.1736,26.66666 0.3857,26.66666 0.2122,0 14.5879,-12.7653 31.9461,-28.36734 z M 240.619,501.197 l 17.409,-14.3046 0.3109,-17.89401 c 0.1711,-9.84171 0.3415,-27.59892 0.3788,-39.46047 l 0.068,-21.56645 -12.7531,-10.41558 c -7.0143,-5.72858 -14.9785,-12.12434 -17.6983,-14.21283 l -4.9451,-3.79722 -2.8836,2.16788 c -2.8774,2.16323 -15.1458,12.08104 -26.6222,21.52151 l -6.0609,4.98568 -0.1015,39.37194 -0.1015,39.37193 17.4639,14.26841 c 9.6052,7.84762 17.6131,14.2684 17.7953,14.2684 0.1823,0 8.1655,-6.43706 17.7404,-14.30459 z m -67.9976,-2.21384 13.8771,-11.5133 0.031,-39.75904 0.031,-39.75903 -14.7735,-12.38735 c -8.1254,-6.81305 -14.9815,-12.38859 -15.2358,-12.3901 -0.5098,-0.003 0.01,117.97596 0.5447,124.14488 0.2392,2.74878 0.4899,3.62208 0.985,3.43208 0.3653,-0.14017 6.9088,-5.43584 14.5412,-11.76814 z m 116.9513,-56.14259 c 0.043,-32.87986 0.01,-59.84706 -0.076,-59.92709 -0.085,-0.08 -6.8022,5.40381 -14.9276,12.18634 l -14.7735,12.33186 0.013,39.76655 0.013,39.76655 14.5079,12.06056 14.5079,12.06057 0.3284,-4.23188 c 0.1807,-2.32754 0.3637,-31.13359 0.4067,-64.01346 l 0,0 z m -21.5987,-43.5737 c 11.9347,-9.97712 20.2572,-17.27113 20.4756,-17.94535 0.1948,-0.60102 -7.8326,-7.03623 -43.7812,-35.09747 l -20.4805,-15.9869 -0.1316,23.56304 c -0.072,12.95968 -0.033,23.81927 0.087,24.13244 0.386,1.00707 34.2838,28.51925 34.9509,28.36689 0.3539,-0.0808 4.3499,-3.24551 8.8801,-7.03265 z"
       id="path3183-1-1-1"
       inkscape:connector-curvature="0" />
    <path
       style="fill:#ffffff;fill-opacity:1;stroke:#fa7d32;stroke-width:3.57142854;stroke-miterlimit:4;stroke-dasharray:none"
       d="m 182.6837,402.47699 c -2.5328,-2.15783 -9.1854,-7.65307 -14.7837,-12.21166 -5.5982,-4.55858 -10.1785,-8.5027 -10.1785,-8.76472 0,-0.42319 61.8848,-48.93248 64.1071,-50.25127 0.7069,-0.41953 0.8929,4.36826 0.8929,22.99272 l 0,23.52257 -16.2305,13.12672 c -8.9267,7.2197 -16.8991,13.66273 -17.7164,14.31785 -1.4294,1.14586 -1.6608,1.04207 -6.0909,-2.73221 l 0,0 z"
       id="path3602-4"
       inkscape:connector-curvature="0" />
    <path
       style="fill:#2a7fff;fill-opacity:1;stroke:none"
       d="m 417.56775,500.94715 -17.5514,-14.40665 0.01,-38.9413 0.01,-38.94128 17.4815,-14.33543 c 9.6148,-7.88448 17.7672,-14.36208 18.1164,-14.39467 0.3492,-0.0326 8.3898,6.29496 17.8679,14.06122 l 17.233,14.12046 -0.1294,39.12742 -0.1293,39.12744 -15.9099,13.08805 c -8.7504,7.19843 -16.7054,13.72105 -17.6777,14.49472 l -1.7677,1.40667 -17.5514,-14.40665 0,0 z"
       id="path4035-18-3-8-6"
       inkscape:connector-curvature="0" />
    <path
       style="fill:#5fbcd3;fill-opacity:1;stroke:none"
       d="m 453.6477,392.0877 -17.2931,-14.23944 -0.01,-23.65475 -0.01,-23.65477 2.0114,1.59306 c 1.1063,0.87618 15.5956,12.15691 32.1986,25.06828 16.603,12.91137 30.2535,23.66303 30.3345,23.89259 0.1219,0.34533 -29.3892,25.35403 -29.8117,25.26344 -0.074,-0.0159 -7.917,-6.43672 -17.4282,-14.26841 l 0,0 z"
       id="path4037-9-8-9-3"
       inkscape:connector-curvature="0" />
    <path
       style="fill:#0066ff;fill-opacity:1;stroke:none"
       d="m 486.7245,498.71045 -14.5209,-12.10372 0,-39.48551 0,-39.48549 14.7735,-12.30316 14.7734,-12.30317 0.1179,39.33076 c 0.065,21.6319 -0.049,50.38348 -0.2525,63.89238 l -0.3704,24.56163 -14.521,-12.10372 z"
       id="path4039-2-7-3-9"
       inkscape:connector-curvature="0" />
    <path
       style="fill:#0066ff;fill-opacity:1;stroke:none"
       d="m 402.2051,541.35944 -31.8652,-28.62155 14.6412,-12.20011 14.6412,-12.2001 17.3396,14.20327 17.3396,14.20327 0.011,26.64277 c 0.01,14.65353 -0.046,26.63181 -0.1156,26.6184 -0.069,-0.0134 -14.4656,-12.90409 -31.9915,-28.64595 l 0,0 z"
       id="path4041-7-4-4-21"
       inkscape:connector-curvature="0" />
    <path
       style="fill:#5fbcd3;fill-opacity:1;stroke:none"
       d="m 368.9988,463.63051 c -0.1847,-26.29889 -0.3359,-55.16859 -0.3359,-64.1549 l 0,-16.33876 14.8998,12.42733 14.8997,12.42732 0,39.59088 0,39.5909 -13.7633,11.45433 c -7.5698,6.29988 -14.1236,11.76139 -14.5639,12.1367 -0.7295,0.62182 -0.8304,-3.56047 -1.1364,-47.1338 l 0,0 z"
       id="path4043-9-2-4-9"
       inkscape:connector-curvature="0" />
    <path
       style="fill:#2a7fff;fill-opacity:1;stroke:none"
       d="m 436.4649,542.94122 0.1308,-26.66442 17.0865,-14.03469 c 9.3976,-7.71909 17.2739,-14.0347 17.503,-14.0347 0.2872,0 26.1588,21.24676 29.173,23.95805 0.1191,0.10712 -58.8744,53.13206 -62.3154,56.01074 l -1.7086,1.42943 0.1307,-26.66441 0,0 z"
       id="path4045-5-7-6-8"
       inkscape:connector-curvature="0" />
    <path
       style="fill:none;stroke:#80b3ff;stroke-width:2.52538133;stroke-miterlimit:4;stroke-dasharray:none"
       d="m 401.5888,543.19321 -33.3301,-29.89034 -0.3127,-19.22996 c -0.1719,-10.57649 -0.3686,-40.36742 -0.4369,-66.20207 l -0.1242,-46.97207 34.1698,-26.61618 34.1699,-26.61619 33.821,26.30831 33.821,26.30829 -0.071,42.98683 c -0.039,23.64274 -0.2097,53.45587 -0.3788,66.2514 l -0.3074,23.26458 -33.4842,30.02097 c -18.4162,16.51152 -33.6465,30.07851 -33.845,30.14886 -0.1985,0.0703 -15.3594,-13.32274 -33.691,-29.76243 l 0,0 z m 33.0875,0.16314 0,-26.69345 -17.1932,-14.09146 c -9.4562,-7.75029 -17.3996,-14.16334 -17.6519,-14.25122 -0.3677,-0.12806 -25.4613,20.3571 -28.9535,23.63623 -0.8757,0.82227 -0.6178,1.12871 5.7854,6.87483 44.1118,39.58528 57.1866,51.21853 57.5653,51.21853 0.2548,0 0.4479,-11.50853 0.4479,-26.69346 z m 33.8469,-2.17896 c 17.3583,-15.60203 31.5604,-28.64477 31.5604,-28.98385 0,-0.90705 -27.8341,-23.96608 -28.929,-23.96608 -0.4981,0 -14.1976,10.89549 -28.5477,22.70453 l -6.4154,5.27941 0,26.66667 c 0,14.66666 0.1735,26.66666 0.3857,26.66666 0.2121,0 14.5878,-12.7653 31.946,-28.36734 z m -15.6481,-39.98041 17.409,-14.3046 0.311,-17.89401 c 0.171,-9.84171 0.3415,-27.59892 0.3788,-39.46047 l 0.068,-21.56643 -12.7532,-10.41558 c -7.0142,-5.72858 -14.9785,-12.12434 -17.6983,-14.21283 l -4.9451,-3.79722 -2.8836,2.16788 c -2.8774,2.16323 -15.1457,12.08104 -26.6221,21.52151 l -6.0609,4.98568 -0.1016,39.37192 -0.1015,39.37193 17.4639,14.26841 c 9.6052,7.84762 17.6131,14.2684 17.7954,14.2684 0.1822,0 8.1654,-6.43706 17.7403,-14.30459 z m -67.9976,-2.21384 13.8771,-11.5133 0.031,-39.75904 0.031,-39.75901 -14.7735,-12.38735 c -8.1254,-6.81305 -14.9815,-12.38859 -15.2357,-12.3901 -0.5099,-0.003 0.01,117.97594 0.5446,124.14486 0.2393,2.74878 0.4899,3.62208 0.985,3.43208 0.3653,-0.14017 6.9089,-5.43584 14.5413,-11.76814 z m 116.9514,-56.14259 c 0.043,-32.87984 0.01,-59.84704 -0.076,-59.92707 -0.085,-0.08 -6.8022,5.40381 -14.9276,12.18634 l -14.7735,12.33186 0.013,39.76653 0.013,39.76655 14.5079,12.06056 14.5079,12.06057 0.3284,-4.23188 c 0.1806,-2.32754 0.3636,-31.13359 0.4066,-64.01346 l 0,0 z m -21.5988,-43.57368 c 11.9348,-9.97712 20.2572,-17.27113 20.4757,-17.94535 0.1947,-0.60102 -7.8327,-7.03623 -43.7813,-35.09747 l -20.4805,-15.98691 -0.1316,23.56305 c -0.072,12.95968 -0.033,23.81927 0.087,24.13244 0.386,1.00707 34.2838,28.51925 34.9509,28.36689 0.3539,-0.0808 4.3499,-3.24551 8.8802,-7.03265 z"
       id="path3183-4-7-0-2"
       inkscape:connector-curvature="0" />
    <path
       style="fill:#ffffff;fill-opacity:1;stroke:#5fbcd3;stroke-width:1.26269066;stroke-miterlimit:4;stroke-dasharray:none"
       d="m 387.3077,396.51051 c -6.667,-5.56837 -13.5171,-11.2126 -15.2225,-12.54273 -2.944,-2.29625 -3.078,-2.44001 -2.6516,-2.84584 0.2469,-0.23507 14.6543,-11.48229 32.0163,-24.9938 17.3619,-13.51152 32.0218,-24.93589 32.5774,-25.38749 l 1.0101,-0.82109 -0.07,24.15929 -0.07,24.1593 -0.8139,0.67047 c -0.4476,0.36876 -3.5981,2.87258 -7.001,5.56405 -3.403,2.69147 -10.9393,8.78213 -16.7475,13.5348 -5.8082,4.75267 -10.638,8.6381 -10.7329,8.63428 -0.095,-0.004 -5.6274,-4.56287 -12.2944,-10.13124 z"
       id="path3606-3"
       inkscape:connector-curvature="0" />
    <path
       style="fill:#33b21a;fill-opacity:1;stroke:none"
       d="m 629.7851,500.9472 -17.5514,-14.40665 0.01,-38.9413 0.01,-38.9413 17.4815,-14.33543 c 9.6148,-7.88448 17.7672,-14.36208 18.1164,-14.39467 0.3492,-0.0326 8.3898,6.29496 17.8679,14.06122 l 17.23298,14.12046 -0.12934,39.12744 -0.12934,39.12744 -15.9099,13.08805 c -8.7504,7.19843 -16.7054,13.72105 -17.6777,14.49472 l -1.7677,1.40667 -17.5514,-14.40665 0,0 z"
       id="path4035-9-2-6-0"
       inkscape:connector-curvature="0" />
    <path
       style="fill:#7fe76e;fill-opacity:1;stroke:none"
       d="m 665.9037,392.08773 -17.2931,-14.23944 -0.01,-23.65475 -0.01,-23.65476 2.0114,1.59306 c 1.1063,0.87618 15.5956,12.1569 32.1986,25.06827 16.60296,12.91137 30.25347,23.66303 30.33457,23.89259 0.1218,0.34533 -29.38929,25.35403 -29.81177,25.26344 -0.0743,-0.0159 -7.917,-6.43672 -17.4282,-14.26841 l 0,0 z"
       id="path4037-3-8-1-23"
       inkscape:connector-curvature="0" />
    <path
       style="fill:#008000;fill-opacity:1;stroke:none"
       d="m 698.98052,498.7105 -14.52095,-12.10372 0,-39.48551 0,-39.48551 14.77348,-12.30316 14.77352,-12.30317 0.1179,39.33076 c 0.065,21.63192 -0.049,50.3835 -0.2526,63.8924 l -0.3704,24.56163 -14.52095,-12.10372 z"
       id="path4039-1-6-8-1"
       inkscape:connector-curvature="0" />
    <path
       style="fill:#008000;fill-opacity:1;stroke:none"
       d="m 614.4611,541.35949 -31.8652,-28.62155 14.6412,-12.20011 14.6411,-12.2001 17.3397,14.20327 17.3396,14.20327 0.011,26.64277 c 0.01,14.65353 -0.046,26.63181 -0.1156,26.6184 -0.069,-0.0134 -14.4656,-12.90409 -31.9915,-28.64595 l 0,0 z"
       id="path4041-9-0-4-9"
       inkscape:connector-curvature="0" />
    <path
       style="fill:#7fe76e;fill-opacity:1;stroke:none"
       d="m 581.2548,463.63056 c -0.1847,-26.29889 -0.3359,-55.16861 -0.3359,-64.15492 l 0,-16.33876 14.8998,12.42733 14.8997,12.42732 0,39.5909 0,39.5909 -13.7633,11.45433 c -7.5698,6.29988 -14.1236,11.76139 -14.5639,12.1367 -0.7295,0.62182 -0.8304,-3.56047 -1.1364,-47.1338 l 0,0 z"
       id="path4043-8-2-9-8"
       inkscape:connector-curvature="0" />
    <path
       style="fill:#33b21a;fill-opacity:1;stroke:none"
       d="m 648.7209,542.94127 0.1308,-26.66442 17.0865,-14.03469 c 9.39758,-7.71909 17.27393,-14.0347 17.50301,-14.0347 0.2872,0 26.15876,21.24676 29.17306,23.95805 0.1191,0.10712 -58.87447,53.13206 -62.31547,56.01074 l -1.7086,1.42943 0.1307,-26.66441 0,0 z"
       id="path4045-65-4-6-98"
       inkscape:connector-curvature="0" />
    <path
       style="fill:none;stroke:#7fe76e;stroke-width:2.52538133;stroke-miterlimit:4;stroke-dasharray:none"
       d="m 613.8448,543.19326 -33.3301,-29.89034 -0.3127,-19.22996 c -0.172,-10.57649 -0.3686,-40.36742 -0.4369,-66.20207 l -0.1242,-46.97209 34.1698,-26.61618 34.1699,-26.61618 33.82101,26.3083 33.82106,26.30829 -0.071,42.98683 c -0.039,23.64276 -0.2098,53.45589 -0.3789,66.25142 l -0.3074,23.26458 -33.48414,30.02097 c -18.41633,16.51152 -33.64653,30.07851 -33.84503,30.14886 -0.1985,0.0703 -15.3595,-13.32274 -33.691,-29.76243 l 0,0 z m 33.0874,0.16314 0,-26.69345 -17.1931,-14.09146 c -9.4562,-7.75029 -17.3996,-14.16334 -17.6519,-14.25122 -0.3677,-0.12806 -25.4613,20.3571 -28.9535,23.63623 -0.8757,0.82227 -0.6179,1.12871 5.7853,6.87483 44.1119,39.58528 57.1867,51.21853 57.5654,51.21853 0.2548,0 0.4479,-11.50853 0.4479,-26.69346 z m 33.84703,-2.17896 c 17.35822,-15.60203 31.56044,-28.64477 31.56044,-28.98385 0,-0.90705 -27.83419,-23.96608 -28.92907,-23.96608 -0.49807,0 -14.1976,10.89549 -28.5477,22.70453 l -6.4154,5.27941 0,26.66667 c 0,14.66666 0.1735,26.66666 0.3857,26.66666 0.2121,0 14.5878,-12.7653 31.94603,-28.36734 z m -15.64813,-39.98041 17.40902,-14.3046 0.31095,-17.89401 c 0.17102,-9.84171 0.34148,-27.59892 0.3788,-39.46047 l 0.0679,-21.56645 -12.75318,-10.41558 C 663.5303,391.82734 655.5661,385.43158 652.8463,383.34309 l -4.9451,-3.79722 -2.8836,2.16788 c -2.8774,2.16323 -15.1457,12.08104 -26.6221,21.52151 l -6.061,4.98568 -0.1015,39.37194 -0.1015,39.37193 17.4639,14.26841 c 9.6052,7.84762 17.6131,14.2684 17.7953,14.2684 0.1823,0 8.1655,-6.43706 17.7404,-14.30459 z m -67.9976,-2.21384 13.8771,-11.5133 0.031,-39.75904 0.031,-39.75903 -14.7735,-12.38735 c -8.1254,-6.81305 -14.9815,-12.38859 -15.2357,-12.3901 -0.5099,-0.003 0.01,117.97596 0.5446,124.14488 0.2392,2.74878 0.4899,3.62208 0.985,3.43208 0.3653,-0.14017 6.9088,-5.43584 14.5412,-11.76814 z M 714.08487,442.8406 c 0.043,-32.87986 0.01,-59.84706 -0.076,-59.92709 -0.085,-0.08 -6.8022,5.40381 -14.92761,12.18634 l -14.77348,12.33186 0.0131,39.76655 0.0131,39.76655 14.50788,12.06056 14.50791,12.06057 0.3284,-4.23188 c 0.1806,-2.32754 0.3636,-31.13359 0.4067,-64.01346 l -10e-5,0 z m -21.59876,-43.5737 c 11.93476,-9.97712 20.25716,-17.27113 20.47566,-17.94535 0.1948,-0.60102 -7.8326,-7.03623 -43.78127,-35.09747 l -20.4805,-15.9869 -0.1316,23.56304 c -0.072,12.95968 -0.033,23.81927 0.087,24.13244 0.386,1.00707 34.28381,28.51925 34.95093,28.36689 0.35386,-0.0808 4.34991,-3.24551 8.88013,-7.03265 z"
       id="path3183-0-8-3-9"
       inkscape:connector-curvature="0" />
    <path
       style="fill:#ffffff;fill-opacity:1;stroke:#7fe76e;stroke-width:1.26269066;stroke-miterlimit:4;stroke-dasharray:none"
       d="m 606.8577,402.56541 c -7.9578,-6.69156 -20.999,-17.46291 -23.4293,-19.3513 -1.223,-0.95034 -2.1262,-1.81658 -2.0071,-1.92497 0.3355,-0.30522 65.3567,-50.90462 65.6326,-51.07526 0.1565,-0.0967 0.2148,8.50745 0.1627,23.99456 l -0.081,24.1454 -0.5413,0.37911 c -1.924,1.34762 -22.4014,17.86939 -32.7916,26.45723 l -1.9282,1.59367 -5.0166,-4.21844 0,0 z"
       id="path3608-1"
       inkscape:connector-curvature="0" />
  </g>
</svg>
